
<svg xmlns="http://www.w3.org/2000/svg" version="1.1" width="512px" height="512px" style="shape-rendering:geometricPrecision; text-rendering:geometricPrecision; image-rendering:optimizeQuality; fill-rule:evenodd; clip-rule:evenodd" xmlns:xlink="http://www.w3.org/1999/xlink">
<g><path style="opacity:0.988" fill="#000000" d="M 381.5,-0.5 C 410.167,-0.5 438.833,-0.5 467.5,-0.5C 470.472,1.64111 472.972,4.30777 475,7.5C 486.941,27.7302 499.108,47.7302 511.5,67.5C 511.5,72.1667 511.5,76.8333 511.5,81.5C 498.235,103.854 484.568,126.02 470.5,148C 469.167,148.667 467.833,149.333 466.5,150C 452.5,150.167 438.5,150.333 424.5,150.5C 409.435,150.643 394.435,150.143 379.5,149C 378.333,147.833 377.167,146.667 376,145.5C 364,125.5 352,105.5 340,85.5C 335.689,79.6916 335.022,73.6916 338,67.5C 350,47.5 362,27.5 374,7.5C 376.028,4.30777 378.528,1.64111 381.5,-0.5 Z"/></g>
<g><path style="opacity:0.987" fill="#000000" d="M 214.5,89.5 C 243.563,89.0243 272.563,89.5243 301.5,91C 303.709,92.8734 305.542,95.04 307,97.5C 318.082,116.665 329.415,135.665 341,154.5C 344.604,159.539 345.604,164.872 344,170.5C 330.46,193.753 316.293,216.586 301.5,239C 299.608,239.973 297.608,240.64 295.5,241C 268.17,240.959 240.837,240.626 213.5,240C 210.333,238.167 207.833,235.667 206,232.5C 196,215.833 186,199.167 176,182.5C 172.489,176.978 169.655,171.144 167.5,165C 168.406,162.553 169.239,160.053 170,157.5C 182.918,136.666 195.585,115.666 208,94.5C 209.805,92.1743 211.972,90.5077 214.5,89.5 Z"/></g>
<g><path style="opacity:0.984" fill="#000000" d="M 51.5,179.5 C 78.8354,179.333 106.169,179.5 133.5,180C 137.066,180.7 139.9,182.533 142,185.5C 155,207.5 168,229.5 181,251.5C 181.667,254.167 181.667,256.833 181,259.5C 167.712,283.251 153.545,306.417 138.5,329C 137.167,329.667 135.833,330.333 134.5,331C 120.833,331.167 107.167,331.333 93.5,331.5C 78.7683,331.642 64.1017,331.142 49.5,330C 47.3762,328.878 45.5429,327.378 44,325.5C 31.6667,304.833 19.3333,284.167 7,263.5C 3.51987,257.324 3.85321,251.324 8,245.5C 19.6667,226.167 31.3333,206.833 43,187.5C 45.0738,183.923 47.9072,181.256 51.5,179.5 Z"/></g>
<g><path style="opacity:0.984" fill="#000000" d="M 511.5,248.5 C 511.5,253.167 511.5,257.833 511.5,262.5C 499.108,282.27 486.941,302.27 475,322.5C 473.178,325.321 471.011,327.821 468.5,330C 440.562,331.641 412.562,331.975 384.5,331C 380.383,330.194 377.216,328.027 375,324.5C 363,304.5 351,284.5 339,264.5C 334.6,257.769 334.934,251.102 340,244.5C 352.708,223.583 365.541,202.75 378.5,182C 379.833,181.333 381.167,180.667 382.5,180C 410.167,179.333 437.833,179.333 465.5,180C 467.246,180.471 468.913,181.138 470.5,182C 484.067,204.314 497.733,226.481 511.5,248.5 Z"/></g>
<g><path style="opacity:0.987" fill="#000000" d="M 217.5,269.5 C 245.586,269.732 273.586,270.565 301.5,272C 315.459,292.636 328.625,313.802 341,335.5C 345.305,341.291 345.971,347.291 343,353.5C 329.563,375.932 315.729,398.099 301.5,420C 286.565,421.143 271.565,421.643 256.5,421.5C 241.435,421.643 226.435,421.143 211.5,420C 209.291,418.127 207.458,415.96 206,413.5C 194.918,394.335 183.585,375.335 172,356.5C 166.934,349.898 166.6,343.231 171,336.5C 183.585,316.333 195.918,296 208,275.5C 210.551,272.319 213.718,270.319 217.5,269.5 Z"/></g>
<g><path style="opacity:0.988" fill="#000000" d="M 131.5,511.5 C 102.833,511.5 74.1667,511.5 45.5,511.5C 42.5282,509.359 40.0282,506.692 38,503.5C 26,483.5 14,463.5 2,443.5C 0.565998,439.594 0.232665,435.594 1,431.5C 14.2052,408.251 28.0385,385.418 42.5,363C 43.8333,362.333 45.1667,361.667 46.5,361C 60.5,360.833 74.5,360.667 88.5,360.5C 103.565,360.357 118.565,360.857 133.5,362C 134.667,363.167 135.833,364.333 137,365.5C 149,385.5 161,405.5 173,425.5C 177.311,431.308 177.978,437.308 175,443.5C 163,463.5 151,483.5 139,503.5C 136.972,506.692 134.472,509.359 131.5,511.5 Z"/></g>
</svg>
