<svg xmlns="http://www.w3.org/2000/svg" xmlns:xlink="http://www.w3.org/1999/xlink" width="1920" viewBox="0 0 1440 809.999993" height="1080" version="1.0"><defs><clipPath id="ae26e3561b"><path d="M 589 124.34375 L 1054 124.34375 L 1054 496 L 589 496 Z M 589 124.34375 " clip-rule="nonzero"/></clipPath><clipPath id="ba124549f4"><path d="M 387 124.34375 L 897 124.34375 L 897 683 L 387 683 Z M 387 124.34375 " clip-rule="nonzero"/></clipPath></defs><g clip-path="url(#ae26e3561b)"><path fill="#040606" d="M 919.085938 495.953125 L 1005.21875 410.480469 C 1069.703125 344.597656 1069.703125 237.582031 1005.125 171.933594 C 975.394531 141.707031 932.699219 124.390625 887.960938 124.390625 C 887.960938 124.390625 887.914062 124.390625 887.914062 124.390625 C 843.222656 124.390625 800.621094 141.753906 770.980469 171.933594 L 729.125 214.460938 L 729.078125 214.460938 C 729.03125 214.507812 729.03125 214.554688 728.984375 214.601562 L 597.183594 344.179688 C 587.476562 353.976562 587.476562 370.042969 597.324219 379.882812 C 606.570312 389.214844 622.875 389.496094 632.910156 379.746094 L 716.023438 299.007812 C 720.15625 294.96875 726.335938 294.78125 730.9375 297.9375 L 731.074219 297.753906 C 747.429688 308.988281 768.101562 312.332031 789.148438 307.175781 C 804.664062 303.324219 819.203125 295.246094 830.121094 284.289062 C 834.765625 279.644531 842.292969 279.597656 846.9375 284.242188 C 851.585938 288.886719 851.632812 296.40625 846.984375 301.050781 C 833.046875 315.023438 814.558594 325.378906 794.8125 330.253906 C 786.40625 332.296875 778.089844 333.316406 769.867188 333.316406 C 768.75 333.316406 767.683594 333.132812 766.523438 333.085938 L 906.867188 473.992188 C 913.09375 480.308594 917.042969 487.921875 919.085938 495.953125 " fill-opacity="1" fill-rule="nonzero"/></g><g clip-path="url(#ba124549f4)"><path fill="#040606" d="M 752.722656 421.207031 L 855.070312 523.53125 C 855.582031 523.902344 856.089844 524.320312 856.417969 524.648438 C 865.382812 533.652344 880.992188 533.652344 890.003906 524.648438 C 899.296875 515.316406 899.296875 500.132812 890.003906 490.800781 L 724.199219 324.261719 L 649.496094 396.785156 C 640.019531 405.976562 627.800781 411.039062 615.023438 411.039062 C 602.109375 411.039062 589.519531 405.789062 580.460938 396.644531 C 561.414062 377.5625 561.414062 346.457031 580.460938 327.328125 L 703.851562 205.964844 L 670.402344 171.933594 C 640.667969 141.707031 597.976562 124.34375 553.285156 124.34375 C 553.238281 124.34375 553.238281 124.34375 553.191406 124.34375 C 508.546875 124.390625 465.898438 141.707031 436.210938 171.933594 C 371.496094 237.628906 371.496094 344.644531 436.210938 410.527344 L 703.851562 676.003906 C 712.816406 684.964844 728.472656 684.964844 737.394531 676.003906 C 746.683594 666.578125 746.730469 651.300781 737.394531 641.96875 C 737.394531 641.96875 737.394531 641.925781 737.347656 641.925781 L 634.351562 538.992188 C 629.707031 534.351562 629.707031 526.828125 634.351562 522.1875 C 638.996094 517.542969 646.523438 517.542969 651.167969 522.1875 L 754.023438 624.976562 C 754.398438 625.257812 754.675781 625.535156 754.859375 625.722656 C 763.828125 634.679688 779.484375 634.679688 788.449219 625.722656 C 797.648438 616.34375 797.648438 601.066406 788.402344 591.6875 C 788.171875 591.410156 788.03125 591.132812 787.800781 590.851562 L 685.359375 488.480469 C 680.761719 483.835938 680.761719 476.316406 685.359375 471.671875 C 690.007812 467.03125 697.53125 467.03125 702.226562 471.671875 L 805.3125 574.742188 C 805.40625 574.835938 805.453125 574.929688 805.5 575.019531 C 814.464844 583.890625 830.027344 583.890625 838.996094 574.929688 C 848.285156 565.597656 848.285156 550.414062 838.996094 541.035156 L 735.859375 438.011719 C 731.261719 433.371094 731.261719 425.847656 735.859375 421.207031 C 740.503906 416.5625 748.03125 416.5625 752.722656 421.207031 " fill-opacity="1" fill-rule="nonzero"/></g></svg>